<svg width="512.00002" height="512" xmlns="http://www.w3.org/2000/svg">

 <g>
  <title>background</title>
  <rect fill="none" id="canvas_background" height="402" width="582" y="-1" x="-1"/>
 </g>
 <g>
  <title>Layer 1</title>
  <path id="svg_1" fill="#43b9dd" d="m512,256c0,96.359375 -53.246094,180.292969 -131.917969,223.960938c-36.75,20.417968 -79.054687,32.035156 -124.082031,32.035156c-45.023438,0 -87.332031,-11.617188 -124.078125,-32.035156c-78.671875,-43.667969 -131.917969,-127.601563 -131.917969,-223.960938c0,-97.9375 54.992188,-183.035156 135.792969,-226.074219c35.839844,-19.101562 76.757813,-29.925781 120.203125,-29.925781c43.449219,0 84.367188,10.824219 120.207031,29.925781c80.800781,43.039063 135.792969,128.136719 135.792969,226.074219zm0,0"/>
  <path id="svg_2" fill="#2ca3bf" d="m183.066406,479.960938c21.605469,20.417968 46.464844,32.035156 72.933594,32.035156c-45.027344,0 -87.332031,-11.617188 -124.082031,-32.035156c-78.671875,-43.664063 -131.917969,-127.601563 -131.917969,-223.960938c0,-97.9375 54.992188,-183.035156 135.792969,-226.074219c35.839843,-19.101562 76.757812,-29.925781 120.207031,-29.925781c-25.539062,0 -49.59375,10.824219 -70.65625,29.925781c-47.492188,43.039063 -79.808594,128.136719 -79.808594,226.074219c0,96.359375 31.292969,180.296875 77.53125,223.960938zm0,0"/>
  <path id="svg_3" fill="#2ca3bf" d="m380.082031,479.960938c-36.75,20.417968 -79.054687,32.035156 -124.082031,32.035156c-45.023438,0 -87.332031,-11.617188 -124.078125,-32.035156c1.285156,-0.710938 2.578125,-1.410157 3.875,-2.101563c35.839844,-19.101563 76.757813,-29.925781 120.203125,-29.925781c43.449219,0 84.367188,10.824218 120.207031,29.925781c1.292969,0.691406 2.589844,1.390625 3.875,2.101563zm0,0"/>
  <path id="svg_4" fill="#65d5ef" d="m446.121094,84.5625c-26.75,15.496094 -65.359375,9.457031 -95.621094,19.277344c-31.03125,10.074218 -60.121094,40.898437 -94.5,40.898437c-34.386719,0 -63.476562,-30.824219 -94.5,-40.898437c-30.246094,-9.820313 -68.855469,-3.78125 -95.617188,-19.265625l-0.007812,-0.011719c19.882812,-22.027344 43.527344,-40.582031 69.921875,-54.636719c35.839844,-19.101562 76.757813,-29.925781 120.203125,-29.925781c43.449219,0 84.367188,10.824219 120.207031,29.925781c26.394531,14.054688 50.039063,32.609375 69.914063,54.636719zm0,0"/>
  <path id="svg_5" fill="#eaeaea" d="m376.207031,29.925781c-35.839843,19.089844 -76.757812,29.914063 -120.207031,29.914063c-43.445312,0 -84.363281,-10.824219 -120.203125,-29.914063c35.839844,-19.101562 76.757813,-29.925781 120.203125,-29.925781c43.449219,0 84.367188,10.824219 120.207031,29.925781zm0,0"/>
  <path id="svg_6" fill="#edd464" d="m196.828125,200.054688c-26.945313,0 -50.453125,14.632812 -63.066406,36.371093c12.613281,21.742188 36.125,36.375 63.066406,36.375s50.453125,-14.632812 63.066406,-36.375c-12.613281,-21.742187 -36.121093,-36.371093 -63.066406,-36.371093zm0,0"/>
  <path id="svg_7" fill="#edd464" d="m144.210938,236.425781c-1.578126,2.71875 -3.324219,5.320313 -5.226563,7.808594c-8.441406,11.011719 -19.957031,19.546875 -33.257813,24.3125c-7.679687,2.75 -15.953124,4.253906 -24.574218,4.253906c-8.234375,0 -16.15625,-1.371093 -23.53125,-3.886719c16.769531,-5.714843 30.78125,-17.386718 39.539062,-32.488281c-8.757812,-15.085937 -22.769531,-26.757812 -39.539062,-32.484375c7.375,-2.519531 15.296875,-3.886718 23.53125,-3.886718c9.664062,0 18.890625,1.882812 27.332031,5.308593c12.144531,4.921875 22.644531,13.019531 30.5,23.257813c1.902344,2.488281 3.648437,5.089844 5.226563,7.804687zm0,0"/>
  <path id="svg_8" fill="#353c44" d="m214.207031,243.914062c-4.328125,0 -7.835937,-3.507812 -7.835937,-7.835937l0,-7.660156c0,-4.328125 3.507812,-7.839844 7.835937,-7.839844s7.835938,3.511719 7.835938,7.839844l0,7.660156c0,4.328125 -3.507813,7.835937 -7.835938,7.835937zm0,0"/>
  <path id="svg_9" fill="#edd464" d="m273.238281,347.730469c26.945313,0 50.453125,14.632812 63.066407,36.375c-12.613282,21.738281 -36.125,36.371093 -63.066407,36.371093c-26.941406,0 -50.453125,-14.632812 -63.066406,-36.371093c12.613281,-21.742188 36.125,-36.375 63.066406,-36.375zm0,0"/>
  <path id="svg_10" fill="#d8951e" d="m336.308594,384.105469c-12.613282,21.742187 -36.121094,36.371093 -63.070313,36.371093c-26.9375,0 -50.449219,-14.628906 -63.058593,-36.371093c12.609374,7.292969 36.121093,12.191406 63.058593,12.191406c26.949219,0 50.457031,-4.898437 63.070313,-12.191406zm0,0"/>
  <path id="svg_11" fill="#edd464" d="m325.859375,384.101562c12.609375,21.746094 36.121094,36.375 63.058594,36.375c8.234375,0 16.152343,-1.371093 23.53125,-3.890624c-16.773438,-5.714844 -30.785157,-17.386719 -39.539063,-32.484376c8.753906,-15.085937 22.765625,-26.757812 39.539063,-32.484374c-7.378907,-2.519532 -15.296875,-3.886719 -23.53125,-3.886719c-26.9375,0 -50.449219,14.636719 -63.058594,36.371093zm0,0"/>
  <path id="svg_12" fill="#353c44" d="m255.863281,391.59375c-4.328125,0 -7.839843,-3.507812 -7.839843,-7.835938l0,-7.664062c0,-4.328125 3.511718,-7.835938 7.839843,-7.835938s7.835938,3.507813 7.835938,7.835938l0,7.664062c0,4.328126 -3.507813,7.835938 -7.835938,7.835938zm0,0"/>
  <g id="svg_13" fill="#65d5ef">
   <path id="svg_14" d="m397.410156,231.550781c0,15.964844 -12.941406,28.910157 -28.910156,28.910157c-15.964844,0 -28.90625,-12.945313 -28.90625,-28.910157c0,-15.964843 12.941406,-28.910156 28.90625,-28.910156c15.96875,0 28.910156,12.945313 28.910156,28.910156zm0,0"/>
   <path id="svg_15" d="m342.378906,296.335938c0,9.808593 -7.953125,17.761718 -17.761718,17.761718c-9.8125,0 -17.765626,-7.953125 -17.765626,-17.761718c0,-9.8125 7.953126,-17.765626 17.765626,-17.765626c9.808593,0 17.761718,7.953126 17.761718,17.765626zm0,0"/>
   <path id="svg_16" d="m136.1875,154.578125c0,10.003906 -8.109375,18.109375 -18.113281,18.109375c-10,0 -18.109375,-8.105469 -18.109375,-18.109375s8.109375,-18.109375 18.109375,-18.109375c10.003906,0 18.113281,8.105469 18.113281,18.109375zm0,0"/>
  </g>
  <path id="svg_17" fill="#d8951e" d="m105.539062,256c0,4.210938 0.0625,8.390625 0.1875,12.546875c-7.679687,2.75 -15.953124,4.253906 -24.574218,4.253906c-8.234375,0 -16.15625,-1.371093 -23.53125,-3.886719c16.769531,-5.714843 30.78125,-17.386718 39.539062,-32.488281c-8.757812,-15.085937 -22.769531,-26.757812 -39.539062,-32.484375c7.375,-2.519531 15.296875,-3.886718 23.53125,-3.886718c9.664062,0 18.890625,1.882812 27.332031,5.308593c-1.929687,16.363281 -2.945313,33.300781 -2.945313,50.636719zm0,0"/>
  <path id="svg_18" fill="#d8951e" d="m259.898438,236.425781c-12.613282,21.746094 -36.121094,36.375 -63.070313,36.375c-26.9375,0 -50.445313,-14.628906 -63.058594,-36.375c12.613281,7.292969 36.121094,12.195313 63.058594,12.195313c26.949219,0 50.457031,-4.902344 63.070313,-12.195313zm0,0"/>
 </g>
</svg>