<svg width="512" height="512" xmlns="http://www.w3.org/2000/svg">

 <g>
  <title>background</title>
  <rect fill="none" id="canvas_background" height="402" width="582" y="-1" x="-1"/>
 </g>
 <g>
  <title>Layer 1</title>
  <g stroke="null" id="svg_1">
   <path stroke="null" id="svg_2" fill="#FF5959" d="m443.521717,296.537195c-20.500393,31.363624 -45.944611,64.441107 -76.05448,98.784209c-38.166326,43.505657 -75.594375,79.616671 -98.546905,100.763057c-6.842253,6.328096 -12.405704,11.311471 -16.30803,14.764238c-16.993573,-15.041092 -65.31122,-59.03454 -114.854935,-115.527295c-30.111188,-34.343102 -55.555406,-67.420585 -76.055799,-98.784209l48.527265,0c0.052734,0 0.105468,-0.013184 0.158202,-0.013184c0.250487,0 0.487791,-0.013184 0.725094,-0.027685c0.105468,-0.013184 0.210937,-0.026367 0.329588,-0.038232c0.197753,-0.027685 0.395506,-0.052734 0.606442,-0.092285c0.131835,-0.027685 0.250487,-0.052734 0.382322,-0.08042c0.184569,-0.038232 0.355955,-0.090966 0.527341,-0.143701c0.145019,-0.039551 0.276854,-0.08042 0.421873,-0.118652c0.158202,-0.067236 0.329588,-0.118652 0.487791,-0.185888c0.131835,-0.052734 0.263671,-0.105468 0.395506,-0.171386c0.158202,-0.065918 0.329588,-0.143701 0.500974,-0.237304c0.105468,-0.052734 0.210937,-0.118652 0.329588,-0.171386c0.171386,-0.105468 0.342772,-0.210937 0.514158,-0.316405c0.092285,-0.065918 0.184569,-0.118652 0.263671,-0.184569c0.184569,-0.11997 0.355955,-0.250487 0.527341,-0.382322c0.079101,-0.067236 0.145019,-0.133154 0.22412,-0.197753c0.171386,-0.131835 0.329588,-0.290038 0.487791,-0.435057c0.079101,-0.079101 0.145019,-0.143701 0.22412,-0.22412c0.145019,-0.145019 0.276854,-0.301903 0.40869,-0.461424c0.092285,-0.092285 0.171386,-0.197753 0.250487,-0.303221c0.105468,-0.143701 0.22412,-0.276854 0.316405,-0.421873c0.105468,-0.143701 0.197753,-0.290038 0.290038,-0.433738c0.052734,-0.08042 0.105468,-0.158202 0.158202,-0.238622l12.273869,-20.907764l0,-0.014502l8.002404,-13.618589l33.763027,60.130091c1.898429,3.388168 5.616185,5.339331 9.505327,5.009742c3.875959,-0.342772 7.185025,-2.938609 8.463828,-6.618133l46.010528,-132.810906l33.814442,172.34832c0.883297,4.494266 4.734207,7.790149 9.308892,7.976037c0.131835,0.013184 0.263671,0.013184 0.395506,0.013184c4.416483,0 8.318809,-2.939928 9.51851,-7.211392l29.610214,-105.311376l26.367065,41.318509c1.318353,2.068496 3.269516,3.480453 5.444799,4.139629l0.014502,0c1.555657,0.474607 3.215464,0.566892 4.838356,0.237304c0.645993,0.133154 1.30517,0.197753 1.990713,0.197753l85.441155,0l0,0.001318z"/>
   <path stroke="null" id="svg_3" fill="#FF5959" d="m505.221967,136.093605c0,6.684051 -0.527341,13.420836 -1.542473,19.999419c-0.027685,0.158202 -0.039551,0.184569 -0.052734,0.329588l-0.027685,0.158202l-0.013184,0.092285c0,0.038232 0,0.065918 -0.013184,0.105468c-4.877907,35.213215 -21.040918,75.685341 -47.65847,119.983329l-96.371622,0l-35.318683,-55.357653c-2.096182,-3.295883 -5.919406,-5.036109 -9.782181,-4.469217c-3.849591,0.566892 -7.013639,3.348617 -8.068322,7.105924l-24.363168,86.615808l-12.603457,-64.23017l0,-0.027685l-12.142033,-61.843951l-8.13424,-41.475393c-0.85693,-4.390116 -4.561502,-7.659632 -9.017536,-7.962854c-4.456034,-0.301903 -8.569296,2.399403 -10.032668,6.619452l-4.706521,13.592222l-24.824592,71.665682l-21.278221,61.395711l-31.416358,-55.964095c-1.740226,-3.084947 -4.983375,-5.011061 -8.529745,-5.049293l-0.092285,0c-3.50682,0 -6.749969,1.858878 -8.529745,4.877907l-3.019029,5.128394l-23.110732,39.379211l-55.265368,0c-26.617552,-44.283485 -42.780563,-84.75693 -47.65847,-119.970145c-0.013184,-0.013184 -0.013184,-0.039551 -0.013184,-0.065918c0,-0.014502 -0.026367,-0.145019 -0.026367,-0.158202l0,-0.014502c-0.013184,-0.065918 -0.026367,-0.143701 -0.039551,-0.209618c0,-0.08042 -0.013184,-0.171386 -0.026367,-0.250487c-1.028316,-6.564081 -1.542473,-13.302184 -1.542473,-19.999419c0,-75.040667 64.151069,-136.093605 143.001776,-136.093605c39.03644,0 75.50209,14.699639 102.673351,41.396292c0.092285,0.092285 0.197753,0.171386 0.290038,0.250487c0.145019,0.118652 0.276854,0.249169 0.40869,0.367821c0.118652,0.092285 0.250487,0.185888 0.369139,0.276854c0.145019,0.105468 0.290038,0.210937 0.435057,0.303221c0.131835,0.092285 0.263671,0.158202 0.395506,0.237304c0.145019,0.092285 0.290038,0.185888 0.435057,0.263671c0.145019,0.065918 0.290038,0.131835 0.421873,0.197753c0.158202,0.065918 0.303221,0.143701 0.461424,0.209618l0.435057,0.158202l0.474607,0.158202c0.145019,0.039551 0.290038,0.08042 0.44824,0.105468c0.158202,0.039551 0.316405,0.08042 0.474607,0.118652c0.145019,0.027685 0.303221,0.039551 0.44824,0.067236c0.171386,0.026367 0.329588,0.051416 0.487791,0.065918c0.158202,0.013184 0.303221,0.013184 0.44824,0.026367c0.171386,0.013184 0.342772,0.027685 0.500974,0.027685c0.145019,0 0.290038,-0.014502 0.435057,-0.027685c0.171386,0 0.342772,-0.013184 0.514158,-0.026367c0.145019,-0.014502 0.291356,-0.039551 0.435057,-0.052734c0.171386,-0.027685 0.342772,-0.052734 0.515476,-0.08042c0.131835,-0.026367 0.276854,-0.065918 0.420555,-0.105468c0.158202,-0.038232 0.329588,-0.079101 0.500974,-0.118652c0.133154,-0.052734 0.276854,-0.105468 0.410008,-0.143701c0.171386,-0.052734 0.329588,-0.105468 0.487791,-0.172704c0.143701,-0.065918 0.276854,-0.131835 0.420555,-0.196435c0.145019,-0.065918 0.303221,-0.133154 0.462742,-0.210937c0.131835,-0.079101 0.276854,-0.158202 0.40869,-0.250487c0.145019,-0.079101 0.290038,-0.156884 0.421873,-0.249169c0.145019,-0.092285 0.276854,-0.197753 0.40869,-0.290038c0.133154,-0.105468 0.263671,-0.197753 0.396824,-0.303221c0.131835,-0.105468 0.249169,-0.22412 0.381004,-0.329588c0.105468,-0.092285 0.210937,-0.184569 0.303221,-0.276854c27.17126,-26.696653 63.636911,-41.396292 102.686534,-41.396292c78.849389,0 143.001776,61.052939 143.001776,136.093605z"/>
   <path stroke="null" id="svg_4" opacity="0.3" d="m268.919013,496.084461c-6.842253,6.328096 -12.405704,11.311471 -16.30803,14.764238c-16.994892,-15.041092 -65.31122,-59.03454 -114.854935,-115.527295c-30.111188,-34.34442 -55.555406,-67.421903 -76.055799,-98.785527l48.528583,0c0.052734,0 0.105468,-0.013184 0.158202,-0.013184c0.249169,0 0.486472,-0.013184 0.725094,-0.027685c0.105468,-0.014502 0.210937,-0.027685 0.329588,-0.038232c0.196435,-0.027685 0.395506,-0.052734 0.606442,-0.092285c0.131835,-0.027685 0.249169,-0.052734 0.382322,-0.08042c0.184569,-0.038232 0.355955,-0.090966 0.526023,-0.143701c0.145019,-0.039551 0.276854,-0.08042 0.421873,-0.118652c0.158202,-0.067236 0.329588,-0.118652 0.487791,-0.185888c0.131835,-0.052734 0.263671,-0.105468 0.395506,-0.172704c0.158202,-0.065918 0.329588,-0.142382 0.500974,-0.237304c0.105468,-0.052734 0.210937,-0.118652 0.329588,-0.171386c0.171386,-0.105468 0.34409,-0.210937 0.515476,-0.316405c0.090966,-0.065918 0.184569,-0.118652 0.262352,-0.184569c0.185888,-0.11997 0.357274,-0.250487 0.527341,-0.382322c0.079101,-0.067236 0.145019,-0.134472 0.22412,-0.197753c0.171386,-0.131835 0.329588,-0.290038 0.487791,-0.435057c0.079101,-0.079101 0.145019,-0.142382 0.22412,-0.22412c0.145019,-0.143701 0.276854,-0.301903 0.410008,-0.461424c0.090966,-0.092285 0.171386,-0.197753 0.249169,-0.303221c0.105468,-0.142382 0.22412,-0.276854 0.316405,-0.420555c0.105468,-0.143701 0.196435,-0.291356 0.290038,-0.433738c0.052734,-0.081738 0.105468,-0.158202 0.158202,-0.23994l12.273869,-20.906446c10.983201,61.6607 50.072375,136.518115 137.887884,225.335573z"/>
   <path stroke="null" id="svg_5" opacity="0.3" d="m104.573098,276.761897l-55.265368,0c-26.617552,-44.283485 -42.780563,-84.75693 -47.65847,-119.970145c-0.013184,-0.013184 -0.013184,-0.038232 -0.013184,-0.065918c0,-0.013184 -0.027685,-0.145019 -0.027685,-0.158202l0,-0.013184c-0.013184,-0.065918 -0.026367,-0.145019 -0.038232,-0.210937c0,-0.079101 -0.014502,-0.171386 -0.027685,-0.249169c-1.028316,-6.565399 -1.542473,-13.303503 -1.542473,-19.999419c0,-75.041985 64.151069,-136.093605 143.001776,-136.093605c39.03644,0 75.503409,14.699639 102.674669,41.396292c0.090966,0.090966 0.196435,0.171386 0.290038,0.249169c0.143701,0.118652 0.276854,0.250487 0.40869,0.369139c0.118652,0.092285 0.250487,0.184569 0.369139,0.276854c0.145019,0.105468 0.290038,0.210937 0.435057,0.301903c0.131835,0.092285 0.263671,0.158202 0.395506,0.238622c0.145019,0.090966 0.290038,0.184569 0.435057,0.263671c0.145019,0.065918 0.290038,0.131835 0.421873,0.196435c0.158202,0.065918 0.301903,0.145019 0.461424,0.210937l0.435057,0.158202l0.474607,0.158202c0.143701,0.038232 0.290038,0.079101 0.44824,0.105468c0.158202,0.038232 0.316405,0.079101 0.473289,0.118652c0.145019,0.026367 0.303221,0.039551 0.449558,0.065918c0.171386,0.027685 0.329588,0.052734 0.486472,0.065918c0.158202,0.013184 0.303221,0.013184 0.449558,0.027685c0.171386,0.013184 0.342772,0.026367 0.500974,0.026367c0.143701,0 0.290038,-0.013184 0.435057,-0.026367c0.171386,0 0.342772,-0.014502 0.514158,-0.027685c0,0 -128.526258,61.250692 -125.875049,193.204668l-23.112051,39.38053z"/>
   <path stroke="null" id="svg_6" opacity="0.7" fill="#FFFFFF" d="m374.848696,296.537195l68.673021,0c-20.500393,31.363624 -45.944611,64.441107 -76.05448,98.785527c-38.165008,43.505657 -75.594375,79.616671 -98.545587,100.763057l105.927046,-199.548584z"/>
   <path stroke="null" id="svg_7" opacity="0.7" fill="#FFFFFF" d="m505.221967,136.094924c0,6.682733 -0.526023,13.420836 -1.542473,19.999419c-0.027685,0.156884 -0.039551,0.184569 -0.052734,0.329588l-0.027685,0.156884l-0.014502,0.092285c0,0.039551 0,0.065918 -0.013184,0.105468c-4.877907,35.213215 -21.040918,75.68666 -47.65847,119.983329l-70.570131,0l49.858801,-93.932669l-10.546826,-117.610293l-167.904151,-21.911031c0.145019,-0.065918 0.303221,-0.131835 0.46406,-0.209618c0.131835,-0.08042 0.276854,-0.158202 0.40869,-0.250487c0.145019,-0.079101 0.290038,-0.158202 0.421873,-0.250487c0.143701,-0.090966 0.276854,-0.196435 0.40869,-0.290038c0.134472,-0.105468 0.263671,-0.196435 0.396824,-0.301903s0.249169,-0.22412 0.381004,-0.329588c0.105468,-0.092285 0.210937,-0.185888 0.303221,-0.276854c27.169942,-26.696653 63.636911,-41.396292 102.686534,-41.396292c78.846752,-0.001318 143.000458,61.050302 143.000458,136.092287z"/>
   <polygon stroke="null" id="svg_8" points="270.5933532714844,355.1788330078125 230.198974609375,247.8108673095703 190.76702880859375,315.6414489746094 236.7775421142578,182.8292236328125 " opacity="0.3"/>
   <path stroke="null" id="svg_9" opacity="0.3" d="m351.487477,296.537195l-29.003771,-7.857385l-32.668793,67.275566l29.610214,-105.311376l26.367065,41.318509c1.318353,2.068496 3.269516,3.480453 5.444799,4.139629l0.014502,0l0.235985,0.435057z"/>
   <polygon stroke="null" id="svg_10" points="172.79788208007812,317.2485046386719 131.1036376953125,270.8820495605469 139.03485107421875,257.1197509765625 " opacity="0.3"/>
  </g>
 </g>
</svg>