<?xml version="1.0" ?><!DOCTYPE svg  PUBLIC '-//W3C//DTD SVG 1.1//EN'  'http://www.w3.org/Graphics/SVG/1.1/DTD/svg11.dtd'><svg enable-background="new 0 0 512 512" height="512px" id="Calque_1" version="1.1" viewBox="0 0 512 512" width="512px" xml:space="preserve" xmlns="http://www.w3.org/2000/svg" xmlns:xlink="http://www.w3.org/1999/xlink"><g><path d="M400.81,287.185c-15.55,23.79-34.85,48.88-57.689,74.93c-28.95,33-57.34,60.391-74.75,76.431   c-5.19,4.8-9.41,8.58-12.37,11.199c-12.89-11.409-49.54-44.779-87.12-87.63c-22.84-26.05-42.14-51.14-57.69-74.93H148   c0.04,0,0.08-0.01,0.12-0.01c0.19,0,0.37-0.01,0.55-0.021c0.08-0.01,0.16-0.02,0.25-0.029c0.15-0.021,0.3-0.04,0.46-0.07   c0.1-0.021,0.19-0.04,0.29-0.061c0.14-0.029,0.27-0.069,0.4-0.109c0.11-0.03,0.21-0.061,0.32-0.09c0.12-0.051,0.25-0.09,0.37-0.141   c0.1-0.04,0.2-0.08,0.3-0.13c0.12-0.05,0.25-0.109,0.38-0.18c0.08-0.04,0.16-0.09,0.25-0.13c0.13-0.08,0.26-0.16,0.39-0.24   c0.07-0.05,0.14-0.09,0.2-0.14c0.14-0.091,0.27-0.19,0.4-0.29c0.06-0.051,0.11-0.101,0.17-0.15c0.13-0.1,0.25-0.22,0.37-0.33   c0.06-0.06,0.11-0.109,0.17-0.17c0.11-0.11,0.21-0.229,0.31-0.35c0.07-0.07,0.13-0.15,0.19-0.23c0.08-0.109,0.17-0.21,0.24-0.32   c0.08-0.109,0.15-0.22,0.22-0.329c0.04-0.061,0.08-0.12,0.12-0.181l9.31-15.859v-0.011l6.07-10.33l25.61,45.61   c1.44,2.57,4.26,4.05,7.21,3.8c2.94-0.26,5.45-2.229,6.42-5.02l34.9-100.74l25.649,130.73c0.67,3.409,3.591,5.909,7.061,6.05   c0.1,0.01,0.2,0.01,0.3,0.01c3.35,0,6.31-2.23,7.22-5.47l22.46-79.881l20,31.341c1,1.569,2.48,2.64,4.13,3.14h0.011   c1.18,0.36,2.439,0.43,3.67,0.18c0.49,0.101,0.99,0.15,1.51,0.15H400.81z" fill="#FF5959"/><path d="M447.611,165.485c0,5.07-0.4,10.18-1.17,15.17c-0.021,0.12-0.03,0.14-0.04,0.25l-0.021,0.12l-0.01,0.07   c0,0.029,0,0.05-0.01,0.08c-3.7,26.71-15.96,57.409-36.15,91.01h-73.1l-26.79-41.99c-1.59-2.5-4.49-3.82-7.42-3.39   c-2.92,0.43-5.32,2.54-6.12,5.39l-18.48,65.7l-9.56-48.72v-0.021l-9.21-46.91l-6.17-31.46c-0.65-3.33-3.46-5.81-6.84-6.04   c-3.38-0.229-6.5,1.82-7.61,5.021l-3.57,10.31l-18.83,54.36l-16.14,46.57l-23.83-42.45c-1.32-2.34-3.78-3.801-6.47-3.83H170   c-2.66,0-5.12,1.41-6.47,3.7l-2.29,3.89l-17.53,29.87h-41.92c-20.19-33.59-32.45-64.29-36.15-91c-0.01-0.01-0.01-0.03-0.01-0.05   c0-0.011-0.02-0.11-0.02-0.12v-0.011c-0.01-0.05-0.02-0.109-0.03-0.159c0-0.061-0.01-0.13-0.02-0.19   c-0.78-4.979-1.17-10.09-1.17-15.17c0-56.92,48.66-103.23,108.47-103.23c29.61,0,57.27,11.15,77.88,31.4   c0.07,0.07,0.15,0.13,0.22,0.19c0.11,0.09,0.21,0.189,0.31,0.279c0.09,0.07,0.19,0.141,0.28,0.21c0.11,0.08,0.22,0.16,0.33,0.23   c0.1,0.07,0.2,0.12,0.3,0.18c0.11,0.07,0.22,0.141,0.33,0.2c0.11,0.05,0.22,0.1,0.32,0.15c0.12,0.05,0.23,0.109,0.35,0.159   l0.33,0.12l0.36,0.12c0.11,0.03,0.22,0.061,0.34,0.08c0.12,0.03,0.24,0.061,0.36,0.09c0.11,0.021,0.23,0.03,0.34,0.051   c0.13,0.02,0.25,0.039,0.37,0.05c0.12,0.01,0.23,0.01,0.34,0.02c0.13,0.01,0.26,0.021,0.38,0.021c0.11,0,0.22-0.011,0.33-0.021   c0.13,0,0.26-0.01,0.39-0.02c0.11-0.011,0.221-0.03,0.33-0.04c0.13-0.021,0.26-0.04,0.391-0.061c0.1-0.02,0.21-0.05,0.319-0.08   c0.12-0.029,0.25-0.06,0.38-0.09c0.101-0.04,0.21-0.08,0.311-0.109c0.13-0.04,0.25-0.08,0.37-0.131   c0.109-0.05,0.21-0.1,0.319-0.149c0.11-0.05,0.23-0.101,0.351-0.16c0.1-0.06,0.21-0.12,0.31-0.19c0.11-0.06,0.22-0.119,0.32-0.189   c0.11-0.07,0.21-0.15,0.31-0.22c0.101-0.08,0.2-0.15,0.301-0.23c0.1-0.08,0.189-0.17,0.289-0.25c0.08-0.07,0.16-0.14,0.23-0.21   c20.61-20.25,48.27-31.4,77.89-31.4C398.95,62.255,447.611,108.565,447.611,165.485z" fill="#FF5959"/><path d="M268.37,438.546c-5.19,4.8-9.41,8.58-12.37,11.199   c-12.891-11.409-49.54-44.779-87.12-87.63c-22.84-26.051-42.14-51.141-57.69-74.931H148c0.04,0,0.08-0.01,0.12-0.01   c0.189,0,0.369-0.01,0.55-0.021c0.08-0.011,0.16-0.021,0.25-0.029c0.149-0.021,0.3-0.04,0.46-0.07c0.1-0.021,0.189-0.04,0.29-0.061   c0.14-0.029,0.27-0.069,0.399-0.109c0.11-0.03,0.21-0.061,0.32-0.09c0.12-0.051,0.25-0.09,0.37-0.141c0.1-0.04,0.2-0.08,0.3-0.131   c0.12-0.05,0.25-0.108,0.38-0.18c0.08-0.04,0.16-0.09,0.25-0.13c0.13-0.08,0.261-0.16,0.391-0.24c0.069-0.05,0.14-0.09,0.199-0.14   c0.141-0.091,0.271-0.19,0.4-0.29c0.06-0.051,0.11-0.102,0.17-0.15c0.13-0.1,0.25-0.22,0.37-0.33c0.06-0.06,0.11-0.108,0.17-0.17   c0.11-0.109,0.21-0.229,0.311-0.35c0.069-0.07,0.13-0.15,0.189-0.23c0.08-0.108,0.17-0.21,0.24-0.319   c0.08-0.109,0.149-0.221,0.22-0.329c0.04-0.062,0.08-0.12,0.12-0.182l9.31-15.858C172.11,314.395,201.76,371.176,268.37,438.546z" enable-background="new    " opacity="0.3"/><path d="M143.71,272.185h-41.92c-20.19-33.59-32.45-64.29-36.15-91   c-0.01-0.01-0.01-0.029-0.01-0.05c0-0.01-0.021-0.11-0.021-0.12v-0.01c-0.01-0.05-0.02-0.11-0.029-0.16   c0-0.06-0.011-0.13-0.021-0.189c-0.78-4.98-1.17-10.091-1.17-15.17c0-56.921,48.66-103.23,108.47-103.23   c29.61,0,57.271,11.15,77.881,31.4c0.069,0.069,0.149,0.13,0.22,0.189c0.109,0.09,0.21,0.19,0.31,0.28   c0.09,0.07,0.19,0.14,0.28,0.21c0.11,0.08,0.22,0.16,0.33,0.229c0.1,0.07,0.2,0.12,0.3,0.181c0.11,0.069,0.22,0.14,0.33,0.2   c0.11,0.05,0.22,0.1,0.32,0.149c0.12,0.05,0.229,0.11,0.35,0.16l0.33,0.12l0.36,0.12c0.109,0.029,0.22,0.06,0.34,0.08   c0.12,0.029,0.24,0.06,0.359,0.09c0.11,0.02,0.23,0.03,0.341,0.05c0.13,0.021,0.25,0.04,0.369,0.05   c0.12,0.01,0.23,0.01,0.341,0.021c0.13,0.01,0.26,0.02,0.38,0.02c0.109,0,0.22-0.01,0.33-0.02c0.13,0,0.26-0.011,0.39-0.021   c0,0-97.49,46.46-95.479,146.55L143.71,272.185z" enable-background="new    " opacity="0.3"/><path d="M348.72,287.185h52.09c-15.55,23.79-34.85,48.88-57.689,74.931   c-28.949,33-57.34,60.391-74.749,76.431L348.72,287.185z" enable-background="new    " fill="#FFFFFF" opacity="0.7"/><path d="M447.611,165.486c0,5.069-0.399,10.18-1.17,15.17   c-0.021,0.119-0.03,0.14-0.04,0.25l-0.021,0.119l-0.011,0.07c0,0.03,0,0.05-0.01,0.08c-3.7,26.71-15.96,57.41-36.15,91.01H356.68   l37.819-71.25l-8-89.21L259.14,95.105c0.11-0.05,0.23-0.1,0.352-0.159c0.1-0.061,0.21-0.12,0.31-0.19   c0.11-0.06,0.22-0.12,0.32-0.19c0.109-0.069,0.21-0.149,0.31-0.22c0.102-0.08,0.2-0.149,0.301-0.229s0.189-0.17,0.289-0.25   c0.08-0.07,0.16-0.141,0.23-0.21c20.609-20.25,48.27-31.4,77.89-31.4C398.949,62.256,447.611,108.565,447.611,165.486z" enable-background="new    " fill="#FFFFFF" opacity="0.7"/><polygon enable-background="new    " opacity="0.3" points="269.64,331.666 239,250.225 209.09,301.676 243.99,200.935  "/><path d="M331,287.185l-22-5.96l-24.78,51.03l22.46-79.881l20,31.341   c1,1.569,2.48,2.64,4.13,3.14h0.011L331,287.185z" enable-background="new    " opacity="0.3"/><polygon enable-background="new    " opacity="0.3" points="195.46,302.895 163.834,267.725 169.85,257.286  "/></g></svg>